<svg height="30" viewBox="0 0 30 30" width="30" xmlns="http://www.w3.org/2000/svg"><path d="M11.5 0c.277 0 .5.223.5.5v4c0 .277-.223.5-.5.5s-.5-.223-.5-.5v-4c0-.277.223-.5.5-.5zm5 0c.277 0 .5.223.5.5v4c0 .277-.223.5-.5.5s-.5-.223-.5-.5v-4c0-.277.223-.5.5-.5zm-10 0c.277 0 .5.223.5.5v4c0 .277-.223.5-.5.5S6 4.777 6 4.5v-4c0-.277.223-.5.5-.5zm-3 9h16c.277 0 .5.223.5.5s-.223.5-.5.5h-16c-.277 0-.5-.223-.5-.5s.223-.5.5-.5zm21-1c-.66 0-.652 1 0 1h1c1.94 0 3.5 1.56 3.5 3.5S27.44 16 25.5 16h-1c-.657 0-.656 1 0 1h1c2.48 0 4.5-2.02 4.5-4.5S27.98 8 25.5 8zM.5 6c-.276.004-.504.224-.5.5v12c0 4.69 2.798 8.71 6.816 10.5H.5c-.277 0-.5.223-.5.5s.223.5.5.5h22c.277 0 .5-.223.5-.5s-.223-.5-.5-.5h-6.316C20.202 27.21 23 23.19 23 18.5v-12c0-.652-1-.67-1 0v12C22 24.326 17.326 29 11.5 29S1 24.326 1 18.5v-12c.004-.282-.218-.504-.5-.5z"/></svg>